<svg width="24" height="24" viewBox="-400 -350 2400 2400" xmlns="http://www.w3.org/2000/svg" class="svg-icon BaseFeaturedLink_baseFeaturedLinkSocialIconBottom__kz0Lq" xmlns:xlink="http://www.w3.org/1999/xlink"><path fill-rule="evenodd" clip-rule="evenodd" d="M355.5,1449 C519.166667,1473 681.5,1485 842.5,1485 C971.5,1485 1099.83333,1477.33333 1227.5,1462 C1162.91667,1535.83333 1093,1604.33333 1017.75,1667.5 C935.583333,1736.5 855,1794.5 776,1841.5 C720.333333,1805.83333 627.163607,1726.58673 496.490822,1603.7602 C450.830274,1558.92007 403.833333,1507.33333 355.5,1449 Z M85,953.5 C307.333333,1014.5 565,1047.16667 858,1051.5 C1067,1054.5 1289.33333,1029.33333 1525,976 C1507.61312,1026.10009 1486.55957,1076.70019 1461.83935,1127.80028 C1439.3929,1174.20019 1413.27978,1221.10009 1383.5,1268.5 C1211.5,1300.16667 1034.5,1316 852.5,1316 C602.5,1312 394.666667,1289.83333 229,1249.5 C197.35046,1198.8315 169.20092,1148.163 144.55138,1097.4945 C121.20092,1049.49633 101.35046,1001.49817 85,953.5 Z M16,468.5 C256,539.833333 529.666667,578.166667 837,583.5 C1091,583.5 1334,554.166667 1566,495.5 C1571,533.833333 1573.42895,575.499864 1573.28684,620.499591 C1573.42895,682.16653 1568,743.166667 1557,803.5 C1321.33333,863.166667 1085.33333,893 849,893 C514.666667,886.666667 241.333333,847.333333 29,775 C17.3333333,715 11.5,649.666667 11.5,579 C11.5,534.333333 13,497.5 16,468.5 Z M759,9 C851.75,8.58333333 943.666667,15.6666667 1034.75,30.25 C1125.83333,44.8333333 1216.08333,66.9166667 1305.5,96.5 C1337.16667,107.833333 1364.83333,119.666667 1388.5,132 C1412.16667,144.333333 1434.83333,160.833333 1456.5,181.5 C1476.33333,202.166667 1492.83333,225.166667 1506,250.5 C1519.16667,275.833333 1529,303.5 1535.5,333.5 C1331.83333,387.833333 1102.5,415 847.5,415 C562.833333,415 296.333333,378.833333 48,306.5 C53.5833333,279.333333 63.5,253.166667 77.75,228 C92,202.833333 110.25,178.666667 132.5,155.5 C148.25,139.333333 165.833333,125.5 185.25,114 C204.666667,102.5 225.916667,93.3333333 249,86.5 C329.333333,60.25 412,40.6666667 497,27.75 C582,14.8333333 669.333333,8.58333333 759,9 Z" fill="#FFF"></path></svg>